<svg xmlns="http://www.w3.org/2000/svg" width="642.52" height="642.52" viewBox="0 0 170 170" xmlns:v="https://vecta.io/nano"><path d="M82.107 153.051c-2.496-.821-4.443-2.51-5.527-4.795-.568-1.197-.689-1.83-.684-3.572.008-2.712.709-4.369 2.607-6.164 4.511-4.267 11.773-2.661 13.94 3.082.745 1.974.63 5.164-.247 6.864-1.536 2.978-4.066 4.591-7.406 4.723-1.112.044-2.319-.018-2.683-.138zm37.13-.242c-7.064-2.523-7.658-12.55-.938-15.849 1.297-.637 1.832-.742 3.761-.742 2.656 0 4.492.716 6.188 2.411 1.662 1.662 2.411 3.543 2.411 6.056 0 2.495-.762 4.449-2.355 6.042-2.289 2.289-6.062 3.156-9.066 2.083zm38.277.226c-2.363-.721-4.46-2.536-5.526-4.78-.569-1.198-.69-1.829-.685-3.572.008-2.712.709-4.369 2.607-6.164 5.066-4.791 13.388-2.036 14.397 4.766.795 5.363-3.191 10.047-8.487 9.974-.904-.013-1.941-.114-2.305-.225zM39.93 113.587c-9.847-1.124-18.176-4.956-24.994-11.501C5.188 92.729.352 80.484.351 65.156.35 45.813 9 29.857 23.899 21.721c8.496-4.64 20.869-6.201 31.75-4.006 14.832 2.991 27.216 14.27 32.237 29.357 1.947 5.851 2.689 10.853 2.686 18.097-.003 7.308-.677 12.008-2.558 17.855-2.429 7.549-6.259 13.572-12.262 19.279-5.942 5.65-13.308 9.33-21.577 10.779-3.599.631-10.879.888-14.245.504zm12.147-8.982c7.632-2.454 13.367-8.463 16.963-17.772 4.574-11.842 4.573-31.045-.002-43.016-2.538-6.643-7.08-12.582-11.882-15.541-8.435-5.196-19.765-4.063-26.927 2.693-5.919 5.584-9.54 13.648-11.142 24.815-.464 3.235-.46 15.599.006 18.918 1.993 14.189 7.819 24.25 16.58 28.635 3.249 1.626 5.525 2.05 10.451 1.949 3.368-.069 4.432-.191 5.953-.68z" fill="#9d1e34"/><path d="M134.627 113.288c-19.144-.973-33.835-13.552-38.588-33.04-1.169-4.791-1.585-8.612-1.599-14.675-.021-8.992 1.287-15.942 4.284-22.768 3.012-6.859 8.68-13.834 14.751-18.149 5.848-4.157 12.93-6.736 21.016-7.654 3.53-.401 12.002-.173 15.155.406 10.871 1.999 17.636 7.087 19.399 14.589.631 2.686.415 6.405-.487 8.375-1.285 2.806-4.03 4.861-7.329 5.487-3.085.585-5.544.163-9.205-1.58-2.183-1.039-2.183-1.039-2.183-9.138s0-8.099-1.658-8.85c-3.259-1.478-4.522-1.732-8.396-1.689-4.203.046-6.589.575-10.035 2.223-2.944 1.408-5.039 2.933-7.308 5.321-6.96 7.327-10.456 18.044-10.429 31.972.016 8.297 1.459 15.201 4.396 21.034 1.575 3.128 3.161 5.338 5.742 8.002 5.871 6.059 12.97 8.796 22.824 8.798 7.882.002 14.297-1.84 21.663-6.222l2.969-1.714c.048 0 .054 2.28.015 5.067-.072 5.067-.072 5.067-3.776 6.966-10.848 5.563-20.44 7.787-31.221 7.238z" fill="#292d2e"/></svg>